<?xml version="1.0" standalone="no"?>
<!DOCTYPE svg PUBLIC "-//W3C//DTD SVG 20010904//EN"
 "http://www.w3.org/TR/2001/REC-SVG-20010904/DTD/svg10.dtd">
<svg version="1.0" xmlns="http://www.w3.org/2000/svg"
 width="200.000000pt" height="200.000000pt" viewBox="0 0 200.000000 200.000000"
 preserveAspectRatio="xMidYMid meet">
<metadata>
Created by potrace 1.11, written by Peter Selinger 2001-2013
</metadata>
<g transform="translate(0.000000,200.000000) scale(0.100000,-0.100000)"
fill="#000000" stroke="none">
<path d="M732 1478 c-121 -120 -221 -228 -229 -247 -8 -18 -11 -45 -8 -60 4
-18 83 -105 233 -254 204 -203 231 -227 260 -227 18 0 45 6 60 14 39 21 438
427 447 454 18 60 3 80 -228 310 -198 197 -227 222 -255 222 -18 0 -32 -5 -32
-11 0 -11 39 -50 89 -87 27 -21 31 -29 31 -73 0 -48 0 -48 25 -39 14 5 32 7
40 4 12 -5 11 -11 -10 -36 -14 -16 -25 -33 -25 -38 0 -5 -3 -16 -6 -24 -4 -12
-2 -15 9 -10 31 11 29 -18 -4 -52 -87 -90 -197 -104 -264 -34 -22 23 -29 41
-33 86 l-5 57 22 -22 c28 -28 44 -18 37 25 -3 19 -9 50 -12 69 -5 27 -2 41 11
55 24 27 45 25 45 -4 0 -28 24 -51 45 -42 20 7 19 29 -5 75 -15 30 -17 46 -10
70 6 22 5 31 -3 31 -6 0 -107 -96 -225 -212z m438 -154 c0 -3 -22 -26 -50 -51
-27 -25 -50 -51 -50 -59 0 -7 -15 -30 -32 -51 l-33 -38 40 33 c22 17 45 32 51
32 7 0 34 20 62 45 27 25 54 45 58 45 16 0 -92 -102 -121 -114 -16 -7 -38 -23
-49 -34 -18 -21 -18 -22 65 -100 60 -57 81 -83 76 -95 -13 -33 -46 -17 -121
60 l-76 78 -79 -79 c-78 -77 -112 -93 -119 -55 -3 14 99 122 133 142 12 6 4
19 -42 60 -70 64 -113 123 -113 154 0 27 30 32 50 8 7 -9 48 -47 92 -86 78
-71 79 -71 99 -53 12 11 29 35 40 55 25 49 119 130 119 103z"/>
<path d="M790 1287 c0 -25 141 -169 158 -162 11 4 45 -24 108 -90 51 -52 99
-95 106 -95 7 1 -28 40 -78 88 -192 184 -294 274 -294 259z"/>
<path d="M893 1030 c-65 -55 -94 -90 -75 -90 4 0 41 34 82 75 41 41 72 75 69
75 -3 0 -37 -27 -76 -60z"/>
<path d="M953 1393 c-38 -57 -26 -93 32 -93 37 0 55 15 55 46 0 35 -10 54 -39
68 -25 13 -27 12 -48 -21z"/>
<path d="M528 663 c-22 -6 -23 -19 -3 -27 12 -4 15 -27 15 -121 0 -94 -3 -117
-15 -121 -30 -12 -14 -24 30 -24 44 0 60 12 30 24 -9 3 -15 18 -15 38 l0 32
34 -33 c19 -19 32 -40 29 -47 -4 -11 5 -14 36 -14 23 0 41 5 41 10 0 6 -6 10
-13 10 -7 0 -32 20 -56 44 l-42 43 47 42 47 41 -36 0 c-26 0 -35 -4 -31 -13 2
-7 -9 -26 -26 -42 l-30 -29 0 75 c0 75 -7 120 -19 118 -3 -1 -14 -3 -23 -6z"/>
<path d="M738 663 c-22 -5 -24 -23 -3 -23 13 0 15 -21 15 -125 0 -104 -2 -125
-15 -125 -8 0 -15 -4 -15 -10 0 -5 23 -10 52 -10 l52 0 -22 20 c-22 21 -31 70
-13 70 16 0 59 -62 54 -77 -4 -9 6 -13 36 -13 23 0 41 5 41 10 0 6 -6 10 -13
10 -7 0 -32 19 -55 43 l-42 43 32 31 c18 17 42 35 53 41 17 10 14 11 -22 12
-31 0 -41 -4 -37 -13 2 -7 -9 -26 -26 -42 l-30 -29 0 97 c0 100 0 101 -42 90z"/>
<path d="M1207 653 c-9 -10 -19 -38 -23 -61 -4 -26 -12 -42 -20 -42 -8 0 -14
-4 -14 -10 0 -5 7 -10 15 -10 23 0 21 -128 -2 -146 -16 -12 -11 -13 37 -13 46
0 52 2 39 12 -11 8 -19 36 -24 80 l-7 67 26 0 c14 0 26 5 26 10 0 6 -11 10
-25 10 -22 0 -25 4 -25 39 0 24 7 46 18 57 16 17 17 17 20 0 4 -21 37 -17 37
4 0 23 -57 25 -78 3z"/>
<path d="M1818 663 c-22 -5 -24 -23 -3 -23 11 0 15 -12 15 -44 l0 -44 -43 5
c-39 5 -46 2 -65 -22 -48 -61 -16 -165 52 -165 17 0 37 5 44 12 9 9 15 9 24 0
15 -15 58 -16 58 -2 0 6 -6 10 -14 10 -20 0 -26 33 -26 163 0 121 0 121 -42
110z m10 -192 c3 -59 -9 -81 -44 -81 -45 0 -68 68 -43 124 14 30 37 37 64 21
15 -9 21 -25 23 -64z"/>
<path d="M100 640 c0 -4 8 -10 18 -12 12 -4 35 -46 69 -129 28 -68 55 -125 60
-126 5 -2 31 51 57 118 27 66 57 129 69 139 19 19 19 19 -32 18 -28 0 -51 -4
-51 -9 0 -5 7 -9 15 -9 8 0 15 -6 15 -14 0 -26 -63 -187 -70 -179 -4 4 -22 46
-39 93 l-32 84 22 17 c22 17 21 17 -39 17 -34 0 -62 -4 -62 -8z"/>
<path d="M423 624 c-7 -19 11 -39 26 -30 16 10 13 33 -4 40 -9 3 -18 -1 -22
-10z"/>
<path d="M413 553 c-25 -5 -32 -23 -9 -23 34 0 37 -109 4 -140 l-22 -20 52 0
c50 0 68 12 37 24 -11 4 -15 20 -15 54 0 57 -10 113 -19 111 -3 -1 -16 -4 -28
-6z"/>
<path d="M933 549 c10 -6 36 -49 58 -96 40 -88 42 -105 12 -151 -14 -23 -15
-23 -28 -5 -11 14 -16 15 -26 6 -18 -18 -3 -43 25 -43 34 0 46 22 96 160 22
63 48 121 57 128 14 10 10 12 -26 12 -34 0 -41 -3 -33 -13 8 -9 6 -29 -5 -70
-9 -31 -19 -57 -22 -57 -3 0 -16 26 -28 57 -17 42 -20 60 -12 70 9 10 2 13
-37 13 -39 -1 -45 -3 -31 -11z"/>
<path d="M1311 534 c-31 -39 -29 -107 4 -139 67 -67 163 7 135 104 -12 43 -36
60 -82 61 -28 0 -41 -6 -57 -26z m97 -12 c15 -20 16 -104 0 -120 -17 -17 -53
-15 -68 3 -7 8 -15 35 -17 59 -8 71 45 107 85 58z"/>
<path d="M1528 550 c-23 -14 -41 -74 -33 -110 17 -79 115 -97 150 -29 37 70 3
149 -63 149 -20 0 -45 -5 -54 -10z m71 -17 c43 -36 35 -143 -10 -143 -13 0
-31 7 -41 17 -23 21 -25 104 -2 127 20 20 27 20 53 -1z"/>
</g>
</svg>
